# xmcd
#
# Track frame offsets: 
#        150
#        14260
#        32898
#        45360
#        59615
#        70238
#        82595
#        95625
#        105488
#        120708
#        131645
#        144098
#
# Disc length: 2077 seconds
#
# Revision: 0
# Processed by: cddbd v1.5.1PL2 Copyright (c) Steve Scherf et al.
# Submitted via: ExactAudioCopy v0.95a5
#
DISCID=97081b0c
DTITLE=Baby Tate - The Blues of
DYEAR=1961
DGENRE=Blues
TTITLE0=See What You Done Done
TTITLE1=Dupree Blues
TTITLE2=What Have I Done To You
TTITLE3=Bab, I'm Going
TTITLE4=Hey Mama, Hey Pretty Girl
TTITLE5=When Your Woman Don't Want You Around
TTITLE6=My Baby Don't Treat Me Kind
TTITLE7=Trucking Them Blues Away
TTITLE8=Baby, You Just Don't Know
TTITLE9=Lonesome Over There
TTITLE10=Thousand Woman Blues
TTITLE11=I Ain't Got No Loving Baby Now
EXTD=
EXTT0=
EXTT1=
EXTT2=
EXTT3=
EXTT4=
EXTT5=
EXTT6=
EXTT7=
EXTT8=
EXTT9=
EXTT10=
EXTT11=
PLAYORDER=
